<svg  viewBox="0 0 12 12" fill="none" xmlns="http://www.w3.org/2000/svg">
<path d="M0.752293 3.03953C0.951139 3.0397 1.14178 3.11883 1.28229 3.25953L5.11829 7.09553C5.23437 7.21163 5.37218 7.30374 5.52386 7.36658C5.67554 7.42942 5.83811 7.46176 6.00229 7.46176C6.16647 7.46176 6.32905 7.42942 6.48072 7.36658C6.6324 7.30374 6.77022 7.21163 6.88629 7.09553L10.7173 3.26453C10.8587 3.12791 11.0482 3.05231 11.2448 3.05402C11.4415 3.05573 11.6296 3.13461 11.7687 3.27366C11.9077 3.41272 11.9866 3.60083 11.9883 3.79748C11.99 3.99412 11.9144 4.18357 11.7778 4.32503L7.94979 8.15603C7.43366 8.67114 6.73425 8.96045 6.00504 8.96045C5.27584 8.96045 4.57642 8.67114 4.06029 8.15603L0.221793 4.32003C0.116835 4.21514 0.0453502 4.08147 0.0163831 3.93594C-0.012584 3.79041 0.00226912 3.63955 0.0590629 3.50247C0.115857 3.36538 0.212038 3.24822 0.335438 3.16582C0.458837 3.08341 0.603908 3.03946 0.752293 3.03953Z" fill="white"/>
</svg>
