<svg viewBox="1 0 12 12" fill="none" xmlns="http://www.w3.org/2000/svg">
<path d="M12.2448 8.96047C12.0459 8.9603 11.8553 8.88117 11.7148 8.74047L7.87878 4.90447C7.7627 4.78837 7.62489 4.69626 7.47321 4.63342C7.32153 4.57058 7.15896 4.53824 6.99478 4.53824C6.8306 4.53824 6.66803 4.57058 6.51635 4.63342C6.36467 4.69626 6.22685 4.78837 6.11078 4.90447L2.27978 8.73547C2.13833 8.87209 1.94888 8.94769 1.75223 8.94598C1.55558 8.94427 1.36747 8.86539 1.22841 8.72634C1.08936 8.58728 1.01048 8.39917 1.00877 8.20252C1.00706 8.00588 1.08266 7.81643 1.21928 7.67497L5.04728 3.84397C5.56341 3.32886 6.26282 3.03955 6.99203 3.03955C7.72123 3.03955 8.42065 3.32886 8.93678 3.84397L12.7753 7.67997C12.8802 7.78486 12.9517 7.91853 12.9807 8.06406C13.0097 8.20959 12.9948 8.36045 12.938 8.49753C12.8812 8.63462 12.785 8.75178 12.6616 8.83418C12.5382 8.91659 12.3932 8.96054 12.2448 8.96047Z" fill="white"/>
</svg>
