<svg viewBox="0 0 16 16" fill="#8F9090" xmlns="http://www.w3.org/2000/svg">

<path d="M9.41416 8.00023L15.7072 1.70783C16.0979 1.31719 16.0979 0.683841 15.7072 0.293232C15.3166 -0.0974083 14.6833 -0.0974083 14.2927 0.293232L8.00022 6.58629L1.70782 0.293232C1.31718 -0.0974083 0.683833 -0.0974083 0.293224 0.293232C-0.0973847 0.683872 -0.0974159 1.31722 0.293224 1.70783L6.58628 8.00023L0.293224 14.2927C-0.0974159 14.6833 -0.0974159 15.3166 0.293224 15.7073C0.683865 16.0979 1.31721 16.0979 1.70782 15.7073L8.00022 9.41417L14.2926 15.7073C14.6833 16.0979 15.3166 16.0979 15.7072 15.7073C16.0979 15.3166 16.0979 14.6833 15.7072 14.2927L9.41416 8.00023Z"/>

</svg>
