<svg width="32" height="32" viewBox="0 0 32 32" fill="none" xmlns="http://www.w3.org/2000/svg">
<path d="M24 32H8C3.5888 32 0 29.0093 0 25.3333V6.66667C0 2.99067 3.5888 0 8 0H24C28.4112 0 32 2.99067 32 6.66667V25.3333C32 29.0093 28.4112 32 24 32ZM8 2.66667C5.3536 2.66667 3.2 4.46133 3.2 6.66667V25.3333C3.2 27.5387 5.3536 29.3333 8 29.3333H24C26.6464 29.3333 28.8 27.5387 28.8 25.3333V6.66667C28.8 4.46133 26.6464 2.66667 24 2.66667H8ZM25.6 8C25.6 7.264 24.8832 6.66667 24 6.66667H17.6C16.7168 6.66667 16 7.264 16 8C16 8.736 16.7168 9.33333 17.6 9.33333H24C24.8832 9.33333 25.6 8.736 25.6 8ZM25.6 16C25.6 15.264 24.8832 14.6667 24 14.6667H17.6C16.7168 14.6667 16 15.264 16 16C16 16.736 16.7168 17.3333 17.6 17.3333H24C24.8832 17.3333 25.6 16.736 25.6 16ZM25.6 24C25.6 23.264 24.8832 22.6667 24 22.6667H17.6C16.7168 22.6667 16 23.264 16 24C16 24.736 16.7168 25.3333 17.6 25.3333H24C24.8832 25.3333 25.6 24.736 25.6 24ZM12.8 9.33333V6.66667C12.8 5.93067 12.0832 5.33333 11.2 5.33333H8C7.1168 5.33333 6.4 5.93067 6.4 6.66667V9.33333C6.4 10.0693 7.1168 10.6667 8 10.6667H11.2C12.0832 10.6667 12.8 10.0693 12.8 9.33333ZM12.8 17.3333V14.6667C12.8 13.9307 12.0832 13.3333 11.2 13.3333H8C7.1168 13.3333 6.4 13.9307 6.4 14.6667V17.3333C6.4 18.0693 7.1168 18.6667 8 18.6667H11.2C12.0832 18.6667 12.8 18.0693 12.8 17.3333ZM12.8 25.3333V22.6667C12.8 21.9307 12.0832 21.3333 11.2 21.3333H8C7.1168 21.3333 6.4 21.9307 6.4 22.6667V25.3333C6.4 26.0693 7.1168 26.6667 8 26.6667H11.2C12.0832 26.6667 12.8 26.0693 12.8 25.3333Z" fill="black"/>
</svg>
