<svg width="24" height="24" viewBox="0 0 24 24" fill="none" xmlns="http://www.w3.org/2000/svg">
<path d="M23.7283 22.313C23.9101 22.5064 24.0077 22.7642 23.9995 23.0296C23.9914 23.295 23.8782 23.5463 23.6848 23.7282C23.4915 23.9101 23.2339 24.0077 22.9686 23.9995C22.7033 23.9914 22.4522 23.8781 22.2704 23.6847L16.7875 17.8427C15.7516 17.8757 10.9807 18.0178 12.4756 15.7617C12.6008 15.6344 12.7582 15.5435 12.931 15.4987C13.1037 15.4539 13.2854 15.457 13.4566 15.5075C14.5745 15.8545 15.7545 15.9535 16.9145 15.7977C17.115 15.772 17.3187 15.7949 17.5084 15.8646C17.6981 15.9342 17.8683 16.0485 18.0045 16.1979L23.7283 22.313ZM14.9996 13.9948C15.6562 13.9957 16.3065 13.867 16.9132 13.616C17.52 13.365 18.0713 12.9966 18.5355 12.532L23.7063 7.35743C23.7993 7.26453 23.8731 7.15423 23.9235 7.03281C23.9738 6.91139 23.9998 6.78124 23.9999 6.64978C24 6.51831 23.9742 6.38812 23.924 6.26663C23.8738 6.14514 23.8002 6.03473 23.7073 5.94171C23.6145 5.84869 23.5042 5.77487 23.3829 5.72448C23.2615 5.67408 23.1315 5.6481 23.0001 5.64801C22.8687 5.64791 22.7385 5.67371 22.6171 5.72394C22.4957 5.77416 22.3853 5.84782 22.2924 5.94071L17.1215 11.1153C16.6824 11.5509 16.1195 11.84 15.5098 11.9432C14.9001 12.0463 14.2735 11.9585 13.7156 11.6916L20.7064 4.69708C20.8019 4.60479 20.8781 4.49439 20.9305 4.37232C20.9829 4.25026 21.0105 4.11897 21.0117 3.98612C21.0128 3.85328 20.9875 3.72153 20.9372 3.59857C20.887 3.47562 20.8127 3.36391 20.7188 3.26997C20.6249 3.17603 20.5133 3.10174 20.3904 3.05143C20.2675 3.00112 20.1358 2.97581 20.003 2.97696C19.8703 2.97812 19.739 3.00572 19.617 3.05815C19.495 3.11059 19.3847 3.18681 19.2925 3.28237L12.2997 10.2769C12.033 9.71875 11.9451 9.09177 12.0482 8.48177C12.1514 7.87177 12.4403 7.30855 12.8756 6.86918L18.0495 1.69557C18.2316 1.50687 18.3324 1.25414 18.3302 0.991811C18.3279 0.729482 18.2227 0.478543 18.0373 0.293041C17.8519 0.107539 17.6011 0.00231739 17.3389 3.78217e-05C17.0767 -0.00224175 16.8241 0.0986036 16.6355 0.280854L11.4637 5.45446C10.6504 6.27089 10.1433 7.34279 10.0276 8.48962C9.91196 9.63645 10.1949 10.7881 10.8287 11.7506L0.292992 22.292C0.110839 22.4807 0.0100473 22.7334 0.0123256 22.9957C0.014604 23.258 0.11977 23.509 0.305173 23.6945C0.490576 23.88 0.741381 23.9852 1.00357 23.9875C1.26576 23.9898 1.51836 23.8889 1.70695 23.7067L12.2427 13.1654C13.0605 13.7063 14.0192 13.9947 14.9996 13.9948ZM5.45185 12.9593C6.28082 13.7406 7.0458 12.7031 7.60279 12.1478C7.83318 11.9148 8.00283 11.6287 8.09682 11.3147C8.1908 11.0006 8.20623 10.6683 8.14177 10.3469C7.52479 8.62406 9.03275 6.61305 7.78478 5.22735L3.32891 0.560995C3.05405 0.293804 2.70699 0.113003 2.3306 0.0409153C1.95421 -0.0311722 1.56495 0.00861025 1.2109 0.155351C0.856847 0.302091 0.553498 0.549364 0.338308 0.86664C0.123117 1.18391 0.00550741 1.5573 0 1.94069C0.236993 6.55702 1.93495 8.91221 5.45185 12.9593Z" fill="white"/>
</svg>
