<svg width="32" height="32" viewBox="0 0 32 32" fill="none" xmlns="http://www.w3.org/2000/svg">
<path d="M30.6667 25.1996V22.5329C30.6618 18.876 29.2923 15.3526 26.8261 12.6524C24.36 9.95221 20.9748 8.2697 17.3333 7.93423V6.16357C17.8417 5.87006 18.239 5.417 18.4637 4.87466C18.6883 4.33232 18.7277 3.731 18.5758 3.16398C18.4239 2.59696 18.0891 2.09592 17.6234 1.73856C17.1576 1.3812 16.587 1.1875 16 1.1875C15.413 1.1875 14.8424 1.3812 14.3766 1.73856C13.9109 2.09592 13.5761 2.59696 13.4242 3.16398C13.2723 3.731 13.3117 4.33232 13.5363 4.87466C13.761 5.417 14.1583 5.87006 14.6667 6.16357V7.93423C11.0252 8.2697 7.64002 9.95221 5.17388 12.6524C2.70773 15.3526 1.33818 18.876 1.33333 22.5329V25.1996C0.979711 25.1996 0.640573 25.34 0.390524 25.5901C0.140476 25.8401 0 26.1793 0 26.5329C0 26.8865 0.140476 27.2257 0.390524 27.4757C0.640573 27.7258 0.979711 27.8662 1.33333 27.8662H30.6667C31.0203 27.8662 31.3594 27.7258 31.6095 27.4757C31.8595 27.2257 32 26.8865 32 26.5329C32 26.1793 31.8595 25.8401 31.6095 25.5901C31.3594 25.34 31.0203 25.1996 30.6667 25.1996ZM4 22.5329C4.63067 6.6209 27.3747 6.6329 28 22.5329V25.1996H4V22.5329Z" fill="black"/>
</svg>
