<svg width="32" height="32" viewBox="0 0 32 32" fill="none" xmlns="http://www.w3.org/2000/svg">
<path d="M16 21.3333C14.9452 21.3333 13.914 21.0205 13.037 20.4345C12.1599 19.8485 11.4763 19.0155 11.0726 18.041C10.669 17.0664 10.5634 15.9941 10.7691 14.9595C10.9749 13.925 11.4829 12.9746 12.2288 12.2288C12.9746 11.4829 13.925 10.9749 14.9595 10.7691C15.9941 10.5634 17.0664 10.669 18.041 11.0726C19.0155 11.4763 19.8485 12.1599 20.4345 13.037C21.0205 13.914 21.3333 14.9452 21.3333 16C21.3333 17.4145 20.7714 18.771 19.7712 19.7712C18.771 20.7714 17.4145 21.3333 16 21.3333ZM16 13.3333C15.4726 13.3333 14.957 13.4897 14.5185 13.7827C14.0799 14.0758 13.7382 14.4922 13.5363 14.9795C13.3345 15.4668 13.2817 16.003 13.3846 16.5202C13.4875 17.0375 13.7414 17.5127 14.1144 17.8856C14.4873 18.2586 14.9625 18.5125 15.4798 18.6154C15.997 18.7183 16.5332 18.6655 17.0205 18.4637C17.5078 18.2618 17.9242 17.9201 18.2173 17.4815C18.5103 17.043 18.6667 16.5274 18.6667 16C18.6667 15.2928 18.3857 14.6145 17.8856 14.1144C17.3855 13.6143 16.7072 13.3333 16 13.3333ZM24 30.6667C24 28.5449 23.1571 26.5101 21.6569 25.0098C20.1566 23.5095 18.1217 22.6667 16 22.6667C13.8783 22.6667 11.8434 23.5095 10.3431 25.0098C8.84286 26.5101 8 28.5449 8 30.6667C8 31.0203 8.14048 31.3594 8.39052 31.6095C8.64057 31.8595 8.97971 32 9.33333 32C9.68696 32 10.0261 31.8595 10.2761 31.6095C10.5262 31.3594 10.6667 31.0203 10.6667 30.6667C10.6667 29.2522 11.2286 27.8956 12.2288 26.8954C13.229 25.8952 14.5855 25.3333 16 25.3333C17.4145 25.3333 18.771 25.8952 19.7712 26.8954C20.7714 27.8956 21.3333 29.2522 21.3333 30.6667C21.3333 31.0203 21.4738 31.3594 21.7239 31.6095C21.9739 31.8595 22.313 32 22.6667 32C23.0203 32 23.3594 31.8595 23.6095 31.6095C23.8595 31.3594 24 31.0203 24 30.6667ZM24 10.6667C22.9452 10.6667 21.914 10.3539 21.037 9.76784C20.1599 9.18181 19.4763 8.34885 19.0726 7.37431C18.669 6.39977 18.5634 5.32742 18.7691 4.29285C18.9749 3.25829 19.4829 2.30798 20.2288 1.5621C20.9746 0.816219 21.925 0.308269 22.9595 0.102481C23.9941 -0.103307 25.0664 0.00231083 26.041 0.405978C27.0155 0.809645 27.8485 1.49323 28.4345 2.37029C29.0205 3.24736 29.3333 4.2785 29.3333 5.33334C29.3333 6.74782 28.7714 8.10438 27.7712 9.10457C26.771 10.1048 25.4145 10.6667 24 10.6667ZM24 2.66667C23.4726 2.66667 22.957 2.82307 22.5185 3.11608C22.0799 3.4091 21.7382 3.82558 21.5363 4.31285C21.3345 4.80012 21.2817 5.33629 21.3846 5.85358C21.4875 6.37086 21.7414 6.84601 22.1144 7.21895C22.4873 7.59189 22.9625 7.84587 23.4798 7.94876C23.997 8.05166 24.5332 7.99885 25.0205 7.79701C25.5078 7.59518 25.9242 7.25339 26.2173 6.81486C26.5103 6.37632 26.6667 5.86075 26.6667 5.33334C26.6667 4.62609 26.3857 3.94781 25.8856 3.44772C25.3855 2.94762 24.7072 2.66667 24 2.66667ZM32 20C31.9979 17.8789 31.1543 15.8453 29.6545 14.3455C28.1547 12.8457 26.1211 12.0021 24 12C23.6464 12 23.3072 12.1405 23.0572 12.3905C22.8071 12.6406 22.6667 12.9797 22.6667 13.3333C22.6667 13.687 22.8071 14.0261 23.0572 14.2761C23.3072 14.5262 23.6464 14.6667 24 14.6667C25.4145 14.6667 26.771 15.2286 27.7712 16.2288C28.7714 17.229 29.3333 18.5855 29.3333 20C29.3333 20.3536 29.4738 20.6928 29.7239 20.9428C29.9739 21.1929 30.313 21.3333 30.6667 21.3333C31.0203 21.3333 31.3594 21.1929 31.6095 20.9428C31.8595 20.6928 32 20.3536 32 20ZM8 10.6667C6.94517 10.6667 5.91402 10.3539 5.03696 9.76784C4.1599 9.18181 3.47631 8.34885 3.07264 7.37431C2.66898 6.39977 2.56336 5.32742 2.76915 4.29285C2.97493 3.25829 3.48288 2.30798 4.22876 1.5621C4.97464 0.816219 5.92495 0.308269 6.95952 0.102481C7.99408 -0.103307 9.06644 0.00231083 10.041 0.405978C11.0155 0.809645 11.8485 1.49323 12.4345 2.37029C13.0205 3.24736 13.3333 4.2785 13.3333 5.33334C13.3333 6.74782 12.7714 8.10438 11.7712 9.10457C10.771 10.1048 9.41449 10.6667 8 10.6667ZM8 2.66667C7.47258 2.66667 6.95701 2.82307 6.51848 3.11608C6.07995 3.4091 5.73815 3.82558 5.53632 4.31285C5.33449 4.80012 5.28168 5.33629 5.38457 5.85358C5.48747 6.37086 5.74144 6.84601 6.11438 7.21895C6.48732 7.59189 6.96248 7.84587 7.47976 7.94876C7.99704 8.05166 8.53322 7.99885 9.02049 7.79701C9.50776 7.59518 9.92424 7.25339 10.2173 6.81486C10.5103 6.37632 10.6667 5.86075 10.6667 5.33334C10.6667 4.62609 10.3857 3.94781 9.88562 3.44772C9.38552 2.94762 8.70724 2.66667 8 2.66667ZM2.66667 20C2.66667 18.5855 3.22857 17.229 4.22876 16.2288C5.22896 15.2286 6.58551 14.6667 8 14.6667C8.35362 14.6667 8.69276 14.5262 8.94281 14.2761C9.19286 14.0261 9.33333 13.687 9.33333 13.3333C9.33333 12.9797 9.19286 12.6406 8.94281 12.3905C8.69276 12.1405 8.35362 12 8 12C5.87892 12.0021 3.84532 12.8457 2.34548 14.3455C0.845653 15.8453 0.00211791 17.8789 0 20C0 20.3536 0.140476 20.6928 0.390524 20.9428C0.640573 21.1929 0.979711 21.3333 1.33333 21.3333C1.68696 21.3333 2.02609 21.1929 2.27614 20.9428C2.52619 20.6928 2.66667 20.3536 2.66667 20Z" fill="black"/>
</svg>
